<svg width="24" height="24" viewBox="0 0 24 24" fill="none" xmlns="http://www.w3.org/2000/svg">
<g clip-path="url(#clip0_15_77)">
<path d="M23.3122 20.9573H13.4987L23.7986 10.6576C24.0671 10.3889 24.0671 9.95356 23.7986 9.68505L15.9822 1.86861C15.8531 1.73967 15.6783 1.66724 15.4959 1.66724C15.3135 1.66724 15.1386 1.73967 15.0097 1.86861L0.201488 16.6769C-0.0671779 16.9454 -0.0671779 17.3808 0.201488 17.6494L4.68343 22.1312C4.81238 22.2603 4.98732 22.3327 5.16963 22.3327H23.3122C23.692 22.3327 23.9999 22.0248 23.9999 21.6451C23.9999 21.2652 23.692 20.9573 23.3122 20.9573ZM15.4958 3.32747L22.3397 10.1713L14.2458 18.2651L7.40205 11.4213L15.4958 3.32747ZM11.5536 20.9573H5.45449L1.66023 17.1631L6.42951 12.3938L13.2734 19.2376L11.5536 20.9573Z" fill="#1C1C1C"/>
</g>
<defs>
<clipPath id="clip0_15_77">
<rect width="24" height="24" fill="white"/>
</clipPath>
</defs>
</svg>
