<svg width="24" height="24" viewBox="0 0 24 24" fill="none" xmlns="http://www.w3.org/2000/svg">
<path d="M8 10V20H17.3604C18.3138 20 19.1346 19.3271 19.3216 18.3922L20.5216 12.3922C20.7691 11.1546 19.8225 9.99998 18.5604 9.99998H14L16.4258 6.36135C17.1929 5.21057 16.5885 3.64711 15.2467 3.31166L15.1992 3.29977C14.4642 3.11604 13.6886 3.3633 13.1956 3.93847L8 10Z" fill="#FFF"/>
<path d="M8 10V20M8 10L4 9.99998V20H8M8 10L13.1956 3.93847C13.6886 3.3633 14.4642 3.11604 15.1992 3.29977L15.2467 3.31166C16.5885 3.64711 17.1929 5.21057 16.4258 6.36135L14 9.99998H18.5604C19.8225 9.99998 20.7691 11.1546 20.5216 12.3922L19.3216 18.3922C19.1346 19.3271 18.3138 20 17.3604 20H8" stroke="#FFF" stroke-width="1.5" stroke-linecap="round" stroke-linejoin="round"/>
</svg>
